<svg width="48" height="48" viewBox="0 0 48 48" fill="none" xmlns="http://www.w3.org/2000/svg">
<path d="M7 40H40" stroke="white" stroke-width="0.75" stroke-linecap="round"/>
<path d="M24 17V40" stroke="white" stroke-width="0.75" stroke-linecap="round"/>
<path d="M23.4697 11.7803L22.0837 13.1663C21.507 13.743 20.5541 13.1147 20.857 12.3574L23.3036 6.24089C23.5551 5.61228 24.4449 5.61229 24.6964 6.2409L27.143 12.3574C27.4459 13.1147 26.493 13.743 25.9163 13.1663L24.5303 11.7803C24.2374 11.4874 23.7626 11.4874 23.4697 11.7803Z" stroke="white" stroke-width="0.75"/>
<path d="M37.1131 16.1625L35.1534 16.1281C34.3379 16.1137 34.1282 14.9918 34.8833 14.6837L40.9831 12.1956C41.61 11.9399 42.228 12.5801 41.9504 13.1976L39.2493 19.206C38.9149 19.9499 37.801 19.7008 37.8153 18.8853L37.8498 16.9256C37.8571 16.5115 37.5273 16.1698 37.1131 16.1625Z" stroke="#56FF56" stroke-width="0.75"/>
<path d="M32.6131 28.9125L30.6534 28.8779C29.8379 28.8635 29.6282 27.7416 30.3834 27.4336L36.4832 24.9457C37.1101 24.69 37.7281 25.3302 37.4505 25.9477L34.7491 31.956C34.4147 32.6999 33.3008 32.4507 33.3152 31.6353L33.3497 29.6756C33.357 29.2614 33.0272 28.9198 32.6131 28.9125Z" stroke="white" stroke-width="0.75"/>
<path d="M10.995 28.1755L11.0295 30.1352C11.0439 30.9507 9.93004 31.1998 9.5956 30.456L6.89426 24.4476C6.61664 23.8301 7.23465 23.1899 7.86155 23.4456L13.9614 25.9335C14.7166 26.2415 14.5068 27.3635 13.6914 27.3779L11.7316 27.4124C11.3175 27.4197 10.9877 27.7614 10.995 28.1755Z" stroke="white" stroke-width="0.75"/>
<path d="M30 31.5L24 36" stroke="white" stroke-width="0.75" stroke-linecap="round"/>
<path d="M23.9998 37.5005L13.5 30.0001" stroke="white" stroke-width="0.75" stroke-linecap="round"/>
<path d="M35.25 18.75L24 27.75" stroke="white" stroke-width="0.75" stroke-linecap="round"/>
</svg>
